<?xml version="1.0" encoding="UTF-8"?>
<svg id="Layer_1" xmlns="http://www.w3.org/2000/svg" width="12" height="76" version="1.1" viewBox="0 0 12 76">
  <defs>
    <style>
      .color-box-3 {
        fill: #b900b3;
      }

      .color-box-2 {
        fill: #000333;
      }

      .color-box-1 {
        fill: #ffc;
      }
    </style>
  </defs>
  <rect class="color-box-1" x="0" width="12" height="12"/>
  <g>
    <rect class="color-box-1" y="12" width="2" height="2"/>
    <rect class="color-box-1" x="2" y="14" width="2" height="2"/>
    <rect class="color-box-1" x="2" y="18" width="2" height="2"/>
    <rect class="color-box-1" x="4" y="12" width="2" height="2"/>
    <rect class="color-box-1" x="4" y="16" width="2" height="2"/>
    <rect class="color-box-1" x="6" y="14" width="2" height="2"/>
    <rect class="color-box-1" x="10" y="14" width="2" height="2"/>
    <rect class="color-box-1" x="10" y="18" width="2" height="2"/>
    <rect class="color-box-1" x="8" y="12" width="2" height="2"/>
    <rect class="color-box-1" x="8" y="16" width="2" height="2"/>
    <rect class="color-box-1" x="6" y="18" width="2" height="2"/>
    <rect class="color-box-1" x="8" y="20" width="2" height="2"/>
    <rect class="color-box-1" x="10" y="22" width="2" height="2"/>
    <rect class="color-box-1" x="4" y="20" width="2" height="2"/>
    <rect class="color-box-1" x="6" y="22" width="2" height="2"/>
    <rect class="color-box-1" y="20" width="2" height="2"/>
    <rect class="color-box-1" x="2" y="22" width="2" height="2"/>
    <rect class="color-box-1" y="16" width="2" height="2"/>
  </g>
  <rect class="color-box-2" x="0" y="26" width="12" height="12"/>
  <g>
    <rect class="color-box-2" y="38" width="2" height="2"/>
    <rect class="color-box-2" x="2" y="40" width="2" height="2"/>
    <rect class="color-box-2" x="2" y="44" width="2" height="2"/>
    <rect class="color-box-2" x="4" y="38" width="2" height="2"/>
    <rect class="color-box-2" x="4" y="42" width="2" height="2"/>
    <rect class="color-box-2" x="6" y="40" width="2" height="2"/>
    <rect class="color-box-2" x="10" y="40" width="2" height="2"/>
    <rect class="color-box-2" x="10" y="44" width="2" height="2"/>
    <rect class="color-box-2" x="8" y="38" width="2" height="2"/>
    <rect class="color-box-2" x="8" y="42" width="2" height="2"/>
    <rect class="color-box-2" x="6" y="44" width="2" height="2"/>
    <rect class="color-box-2" x="8" y="46" width="2" height="2"/>
    <rect class="color-box-2" x="10" y="48" width="2" height="2"/>
    <rect class="color-box-2" x="4" y="46" width="2" height="2"/>
    <rect class="color-box-2" x="6" y="48" width="2" height="2"/>
    <rect class="color-box-2" y="46" width="2" height="2"/>
    <rect class="color-box-2" x="2" y="48" width="2" height="2"/>
    <rect class="color-box-2" y="42" width="2" height="2"/>
  </g>
  <rect class="color-box-3" x="0" y="52" width="12" height="12"/>
  <g>
    <rect class="color-box-3" y="64" width="2" height="2"/>
    <rect class="color-box-3" x="2" y="66" width="2" height="2"/>
    <rect class="color-box-3" x="2" y="70" width="2" height="2"/>
    <rect class="color-box-3" x="4" y="64" width="2" height="2"/>
    <rect class="color-box-3" x="4" y="68" width="2" height="2"/>
    <rect class="color-box-3" x="6" y="66" width="2" height="2"/>
    <rect class="color-box-3" x="10" y="66" width="2" height="2"/>
    <rect class="color-box-3" x="10" y="70" width="2" height="2"/>
    <rect class="color-box-3" x="8" y="64" width="2" height="2"/>
    <rect class="color-box-3" x="8" y="68" width="2" height="2"/>
    <rect class="color-box-3" x="6" y="70" width="2" height="2"/>
    <rect class="color-box-3" x="8" y="72" width="2" height="2"/>
    <rect class="color-box-3" x="10" y="74" width="2" height="2"/>
    <rect class="color-box-3" x="4" y="72" width="2" height="2"/>
    <rect class="color-box-3" x="6" y="74" width="2" height="2"/>
    <rect class="color-box-3" y="72" width="2" height="2"/>
    <rect class="color-box-3" x="2" y="74" width="2" height="2"/>
    <rect class="color-box-3" y="68" width="2" height="2"/>
  </g>
</svg>